<svg xmlns="http://www.w3.org/2000/svg" viewBox="0 0 2084 2084" version="1.2" xml:space="preserve" baseProfile="tiny-ps" fill-rule="evenodd" stroke-linejoin="round" stroke-miterlimit="2" preserveAspectRatio="xMidYMid meet"><title>PNC Powerlink Logo</title><g><g><rect x="0" y="0" width="2084" height="2084" fill="rgb(51,63,73)"/></g><g transform="matrix(0.875,0,0,0.875,130.541375,130.541375)"><circle cx="1041.667" cy="1041.667" r="1000" fill="rgb(236,105,1)"/></g><g transform="matrix(0.875,0,0,0.875,130.25,130.25)"><path d="M721.556,1823.529C366.609,1860.661 715.299,1330.91 761.69,1250.509C777.991,1222.258 780.005,1222.002 781.972,1223.825C821.374,1260.35 827.551,1255.635 1095.43,1255.635C1663.285,1255.635 1664.514,1258.808 1782.759,1231.103C1804.169,1226.087 1774.303,1239.83 1403.379,1457.545C1282.404,1528.551 904.872,1742.953 897.123,1747.433C796.838,1805.408 785.907,1810.84 721.557,1823.53L721.556,1823.529Z" fill="rgb(254,254,254)"/></g><g transform="matrix(0.875,0,0,0.875,130.25,130.25)"><path d="M511.384,1588.923C511.015,1588.459 510.243,1588.445 509.874,1587.981C506.584,1583.843 506.064,1155.492 506.019,1117.883C505.24,475.772 504.745,475.486 515.648,420.789C554.042,228.178 709.193,193.414 900.728,509.49C934.654,565.476 1021.839,718.123 1021.878,718.222C1027.45,732.683 991.356,706.686 943.585,789.439C543.04,1483.292 540.605,1483.577 511.385,1588.923L511.384,1588.923Z" fill="rgb(254,254,254)"/></g><g transform="matrix(0.875,0,0,0.875,130.25,130.25)"><path d="M838.963,307.262C846.224,304.473 845.565,308.895 862.029,317.775C918.836,348.417 1045.761,420.469 1061.678,429.505C1256.046,539.843 1800.321,857.607 1807.53,862.261C1940.47,948.071 2039.397,1147.775 1647.622,1178.999C1552.982,1186.542 1333.881,1184.189 1334.487,1180.536C1343.414,1126.73 1340.475,1124.38 1280.599,1020.456C904.493,367.666 902.265,367.531 838.963,307.262Z" fill="rgb(254,254,254)"/></g></g></svg>